# File generated by ImageToStl.com - Free Image and 3D model conversion tools

mtllib low-poly-chess-knight.mtl

o obj1
v 0.57261467 1.33521557 0.33110148
v 1.35376942 0.54176903 0.00807714
v 0.57261467 1.33521557 0.00807714
v 1.35376942 0.54176903 0.33110148
v 1.34507799 -0.5716424 0.00807714
v 1.34507799 -0.5716424 0.33110148
v 0.55163145 -1.35279727 0.00807714
v 0.55163145 -1.35279727 0.33110148
v -0.56177998 -1.34410584 0.00807714
v -0.56177998 -1.34410584 0.33110148
v -1.34293473 -0.55065942 0.00807714
v -1.34293473 -0.55065942 0.33110148
v -1.33424342 0.56275201 0.00807714
v -0.54079711 1.343907 0.33110148
v 0.35175663 0.81357223 0.6066519
v -0.8052792 1.08352208 0.00807714
v -0.54079711 1.343907 0.00807714
v -1.06976128 0.82313704 0.00807714
v -0.81260002 0.34189415 0.6066519
v -0.65110326 0.50088918 0.85016161
v -0.65110326 0.50088918 0.6066519
v 0.82874185 0.32908159 0.6066519
v 0.33894414 -0.8277697 0.6066519
v -1.33424342 0.56275201 0.33110148
v -0.34092209 -0.82246256 0.6066519
v -1.06976128 0.82313699 0.33110148
v 0.82343459 -0.35078442 0.6066519
v -0.81790704 -0.33797199 0.6066519
v -0.81790704 -0.33797199 0.85016161
v -1.04522741 0.44038594 0.95269203
v -0.81260002 0.34189415 0.85016161
v 0.33894414 -0.8277697 0.85016161
v 0.82874185 0.32908159 0.85016161
v -0.3281095 0.81887925 0.6066519
v 0.35175663 0.81357223 0.85016161
v -0.34092209 -0.82246256 0.85016161
v 0.82343459 -0.35078442 0.85016161
v 0.45024845 1.04619968 0.95269203
v 1.06287849 0.42392978 1.20901823
v 1.06287849 0.42392978 0.95269203
v -0.43941393 -1.05508995 0.95269203
v 1.05606198 -0.44927621 0.95269203
v -0.83780426 0.64459592 0.95269203
v -1.05204368 -0.43282038 0.95269203
v 0.43379223 -1.06190646 0.95269203
v -0.3281095 0.81887925 0.85016161
v -0.83780426 0.64459592 1.20901823
v -0.84457654 0.35543257 1.32436478
v -0.6790967 0.51834881 1.32436478
v -0.42295781 1.05301583 0.95269203
v 0.45024845 1.04619968 1.20901823
v -1.04522741 0.44038594 1.20901823
v -0.43941393 -1.05508995 1.20901823
v 1.05606198 -0.44927621 1.20901823
v -1.05204368 -0.43282038 1.20901823
v 0.43379223 -1.06190646 1.20901823
v 0.33536771 -0.84307814 1.32436478
v -0.23136014 -0.96754545 1.62493825
v -0.36126569 -0.83764005 1.32436478
v -0.85001445 -0.34120074 1.32436478
v 0.8318069 -0.35432923 1.32436478
v 0.83724511 0.34230411 1.32436478
v -0.42295781 1.05301583 1.20901823
v 0.34849617 0.83874345 1.32436478
v 0.21859062 0.96864891 1.62493825
v -0.55049551 1.04653955 2.82652926
v 0.21859062 0.96864891 2.82652926
v 0.97214097 0.20740813 1.62493825
v 1.15248394 -0.67500621 1.62493825
v -0.99908483 0.83833694 1.62493825
v -0.98491013 -0.20630488 1.62493825
v 0.65397775 -1.16168809 1.62493825
v -0.3481372 0.84418136 1.32436478
v -1.16525352 0.67610961 1.62493825
v -1.04900169 0.55985779 2.82652926
v -0.01917428 -0.48853612 2.82652926
v -0.90451217 -0.29439345 2.82652926
v 0.47933191 -0.00185423 2.82652926
v -0.92630851 0.67860937 2.82652926
v -0.98491013 -0.20630488 2.82652926
v 0.29898894 0.88056016 2.82652926
v -0.81929266 0.33014858 3.48069501
v -0.65312386 0.49237582 3.48069501
v -0.08881938 -0.58881283 4.10815954
v 0.25644222 0.40952346 4.10815954
v 0.58885169 0.07278365 4.10815954
v 0.07208005 -0.57979047 2.78647852
v -0.32078645 0.8168304 3.48069501
v 0.67920911 0.01551419 2.78647852
v -0.42122868 -0.25207314 4.10815954
v -0.19533837 -0.03154092 4.10815954
v 0.13707098 -0.36828068 4.10815954
v 0.06495115 -0.57556796 4.4640336
v 0.0329529 -0.37567768 4.54313326
v 0.14980561 -0.49414331 4.47142124
v -1.23826385 0.90486431 3.3083477
v 0.03055193 0.18899128 4.10815954
v -0.83291602 1.0005641 1.62493825
v -1.18043125 0.96503633 2.7295866
v -0.95491737 1.18520105 2.7295866
v -0.68615687 0.91481936 2.82652926
v 0.44025093 -0.14541508 4.71586752
v 0.36296135 -0.14774853 4.10815954
v -0.66674721 1.16279137 1.62493825
v 0.70424235 -0.43571293 4.15044546
v 0.67264867 -0.47681963 3.88762712
v -0.51361698 0.68126506 1.32436478
v -0.63038105 0.84880584 0.95269203
v -0.63038105 0.84880584 1.20901823
v -0.48960638 0.65988421 0.85016161
v -0.80527925 1.08352196 0.33110148
v -0.48960638 0.65988421 0.6066519
v 0.48863441 -0.1575761 4.47279072
v 0.45561618 0.04333417 4.54138136
v 0.37167305 -0.03900185 4.54338408
v -0.05133089 -0.45767298 4.54162502
v 0.45561618 0.04333417 4.54138136
v 0.57184279 -0.07450542 4.46321821
v 0.37167305 -0.03900185 4.54338408
v 0.48863441 -0.1575761 4.47279072
v -0.48695517 0.65460312 3.48069501
v -0.91234499 1.22543371 3.3083477
v -0.77511084 1.00539458 4.01896763
v 0.26764625 -0.87516326 3.88762712
v 0.91323328 -0.28721371 2.68285036
v 0.24320015 -0.95059586 2.68285036
v 0.87467647 -0.27717444 3.88762712
v 0.4703095 -0.67615342 3.88762712
v 0.67324072 -1.13272846 2.791713
v 1.04181027 -1.174474 3.26868701
v 1.16934729 -1.0482707 3.26772618
v 1.2968843 -0.92206722 3.26676559
v 0.91427338 -1.30067742 3.2696476
v 1.09587729 -0.71303493 2.78959298
v 1.5053767 -1.17865336 2.90694666
v 1.32104158 -1.09202242 3.26675677
v 1.42078948 -1.27943516 3.04458809
v 1.32710278 -1.09930527 2.60714626
v 1.06156623 -1.36299264 2.60847783
v 1.38505316 -1.2981391 2.90755033
v 1.37131381 -1.32839346 3.04496098
v 1.08480012 -1.32579362 3.26853609
v 1.16354728 -1.24786973 3.26794314
v 1.1444056 -1.53711081 2.90875769
v 1.27236247 -1.42631006 3.04570627
v 1.32183814 -1.37735176 3.04533362
v 1.24229431 -1.16994619 3.26734972
v 1.26472926 -1.41762495 2.90815425
v 0.13383551 -0.44485641 4.71740103
v -0.17457269 0.47528541 4.70442438
v -0.48113686 0.17599295 4.70442438
v -1.00062466 0.7852298 4.01896763
v 0.42963469 -0.70623064 4.15044546
v 0.57184279 -0.07450542 4.46321821
vn 0.34219 0.80822 0.47926
vn 0.71957 0.29149 -0.63027
vn 0.30271 0.71494 -0.63026
vn 0.81346 0.32953 0.47926
vn 0.71494 -0.3027 -0.63027
vn 0.80822 -0.34219 0.47926
vn 0.29149 -0.71957 -0.63028
vn 0.32954 -0.81346 0.47925
vn -0.3027 -0.71493 -0.63027
vn -0.34218 -0.80821 0.47927
vn -0.71958 -0.29149 -0.63026
vn -0.81346 -0.32953 0.47926
vn -0.71494 0.3027 -0.63026
vn -0.32954 0.81346 0.47925
vn 0.31243 0.73795 0.59818
vn -0.49609 0.5039 -0.70709
vn -0.2915 0.71959 -0.63026
vn -0.4961 0.50391 -0.70708
vn -0.73796 0.31245 0.59816
vn -0.58743 0.59668 -0.54671
vn -0.60063 0.61008 0.51677
vn 0.74273 0.30088 0.59818
vn 0.30089 -0.74273 0.59818
vn -0.80823 0.3422 0.47924
vn -0.31243 -0.73795 0.59818
vn -0.60063 0.61008 0.51677
vn 0.73795 -0.31243 0.59818
vn -0.74273 -0.30088 0.59818
vn -0.71816 -0.29092 -0.63214
vn -0.79583 0.33695 -0.50311
vn -0.71353 0.3021 -0.63215
vn 0.29092 -0.71817 -0.63213
vn 0.71817 0.29092 -0.63213
vn -0.30088 0.74273 0.59818
vn 0.3021 0.71353 -0.63215
vn -0.3021 -0.71353 -0.63214
vn 0.71353 -0.3021 -0.63215
vn 0.33694 0.79582 -0.50313
vn 0.8132 0.32785 0.48085
vn 0.80099 0.32448 -0.50312
vn -0.33694 -0.79583 -0.50313
vn 0.79582 -0.33694 -0.50313
vn -0.58743 0.59668 -0.54671
vn -0.80098 -0.32448 -0.50313
vn 0.32448 -0.80099 -0.50312
vn -0.29094 0.71817 -0.63213
vn -0.60699 0.61655 0.50143
vn -0.95321 0.25084 0.16871
vn -0.70098 0.71241 0.03319
vn -0.32448 0.80099 -0.50312
vn 0.34502 0.80929 0.47541
vn -0.81432 0.34478 0.46692
vn -0.341 -0.81099 0.47541
vn 0.80634 -0.3414 0.48298
vn -0.81771 -0.33302 0.46951
vn 0.33055 -0.81211 0.48085
vn 0.22263 -0.95412 0.20025
vn -0.35231 -0.93558 -0.0238
vn -0.40006 -0.74823 0.52925
vn -0.76487 -0.38538 0.51619
vn 0.94906 -0.2451 0.19799
vn 0.75137 0.38894 0.53308
vn -0.32999 0.81895 0.4695
vn 0.39028 0.75309 0.52966
vn 0.3927 0.90662 -0.15438
vn -0.3157 0.91631 0.2464
vn 0.438 0.88504 0.15766
vn 0.94025 0.33932 -0.02829
vn 0.92137 -0.36505 -0.13346
vn -0.64949 0.58008 -0.49159
vn -0.91093 -0.37842 -0.16432
vn 0.35003 -0.92724 -0.13304
vn -0.23684 0.95475 0.17989
vn -0.88175 0.31213 -0.35368
vn -0.90826 0.33687 0.24816
vn -0.28581 -0.95828 0.00151
vn -0.58689 -0.79525 0.15214
vn 0.86054 0.47899 -0.17329
vn -0.98439 -0.06514 0.16353
vn -0.90563 -0.39139 0.16324
vn 0.82661 0.54388 0.14459
vn -0.79755 0.25817 0.54522
vn -0.88688 -0.22824 0.40168
vn -0.28876 -0.90667 0.30751
vn 0.12822 0.78324 0.60835
vn 0.90056 0.28151 0.33128
vn -0.66105 -0.22261 -0.71656
vn -0.24014 0.80446 0.5433
vn 0.26131 0.78009 -0.56849
vn -0.78069 -0.11312 0.6146
vn -0.86893 -0.14873 0.47205
vn 0.036 -0.9287 0.36907
vn 0.19739 -0.89972 0.38928
vn 0.26779 0.47578 0.83781
vn 0.89145 -0.19193 0.41046
vn -0.9909 -0.04719 0.12602
vn 0.16211 0.8671 0.47101
vn -0.565 0.6632 -0.49085
vn -0.98978 0.07019 -0.12416
vn -0.02319 0.9934 -0.11237
vn 0.10357 0.98022 0.16867
vn 0.71122 0.19859 0.67433
vn 0.9263 -0.03576 0.37509
vn -0.2965 0.88754 -0.35264
vn 0.98738 -0.00334 0.15832
vn 0.66051 -0.40568 0.63179
vn -0.70096 0.7124 0.03371
vn -0.58743 0.59668 -0.54672
vn -0.607 0.61655 0.50142
vn -0.58744 0.59668 -0.54671
vn -0.60063 0.61008 0.51677
vn -0.60063 0.61008 0.51677
vn 0.32841 -0.25639 0.90907
vn 0.30983 -0.26119 0.91421
vn 0.2844 -0.26756 0.92061
vn -0.4578 -0.24928 0.8534
vn 0.16988 0.76734 0.61833
vn 0.99117 -0.13253 -0.00387
vn -0.80188 -0.17708 0.57065
vn 0.02164 -0.99917 -0.03439
vn 0.22837 0.89239 0.38922
vn 0.04222 0.99172 0.12126
vn 0.03614 0.90398 0.42605
vn -0.17506 -0.79231 0.58446
vn 0.57307 0.37942 -0.72639
vn -0.52009 -0.53256 -0.66775
vn 0.79519 0.12681 0.59295
vn 0.3973 -0.6672 0.63008
vn -0.41647 -0.6406 -0.64512
vn 0.24141 -0.23719 0.94099
vn 0.2419 -0.23729 0.94084
vn 0.81904 0.25019 0.51632
vn -0.22474 -0.79619 0.56176
vn 0.61365 0.41171 -0.67374
vn 0.98727 -0.06629 -0.14456
vn 0.55397 -0.10434 0.82597
vn 0.78561 -0.50946 0.3511
vn 0.5099 0.11062 -0.85309
vn -0.11616 -0.51533 -0.84908
vn 0.66888 -0.67554 -0.31025
vn 0.66728 -0.67188 0.32143
vn 0.11613 -0.52933 0.84043
vn 0.28846 -0.28455 0.91423
vn 0.05918 -0.99326 -0.09971
vn 0.53802 -0.76468 0.35469
vn 0.66739 -0.67147 0.32205
vn 0.28845 -0.28454 0.91424
vn 0.66917 -0.67564 -0.30938
vn -0.20762 -0.70836 0.67463
vn 0.28444 0.66672 0.6889
vn -0.6719 -0.27481 0.68777
vn -0.90023 -0.01888 0.435
vn 0.0034 -0.98721 0.15939
vn 0.3531 -0.24979 0.90163
vt 1 1
vt 0.875 0.5
vt 1 0.5
vt 0.875 1
vt 0.75 0.5
vt 0.75 1
vt 0.625 0.5
vt 0.625 1
vt 0.5 0.5
vt 0.5 1
vt 0.375 0.5
vt 0.375 1
vt 0.25 0.5
vt 0.125 1
vt 0 1
vt 0.16667 0.5
vt 0.125 0.5
vt 0 0.5
vt 0.53343 0.30657
vt 0.55686 0.36314
vt 0.99 0.25
vt 0.25 1
vt 0.20833 1
vt 0.20833 1
vt 0.20833 1
vt 0.20833 1
vt 0.20833 1
vt 0.20833 1
vt 0.25 1
vt 0 0
vt 0.125 1
vt 0.16667 1
vt 0.16667 1
vt 0.16667 1
vt 0.16667 1
vt 0.20833 0.5
vt 0.16667 1
vt 0.58029 0.41971
vt 0.75 0.49
vt 0.91971 0.41971
vt 0.91971 0.08029
vt 0.75 0.01
vt 0.58029 0.08029
vt 0.51 0.25
usemtl mat0
f 1/1/1 2/2/2 3/3/3
f 4/4/4 5/5/5 2/2/2
f 6/6/6 7/7/7 5/5/5
f 8/8/8 9/9/9 7/7/7
f 10/10/10 11/11/11 9/9/9
f 12/12/12 13/13/13 11/11/11
f 14/14/14 15/15/15 1/15/1
f 16/16/16 14/14/14 17/17/17
f 14/14/14 3/18/3 17/17/17
f 18/19/18 16/20/16 5/21/5
f 19/22/19 20/23/20 21/24/21
f 1/1/1 22/4/22 4/4/4
f 6/6/6 23/8/23 8/8/8
f 12/12/12 19/22/19 24/22/24
f 10/10/10 23/8/23 25/10/25
f 26/25/26 19/22/19 21/24/21
f 4/4/4 27/6/27 6/6/6
f 10/10/10 28/12/28 12/12/12
f 29/12/29 30/22/30 31/22/31
f 25/10/25 29/12/29 28/12/28
f 27/6/27 32/8/32 23/8/23
f 15/1/15 33/4/33 22/4/22
f 34/14/34 35/15/35 15/15/15
f 28/12/28 31/22/31 19/22/19
f 23/8/23 36/10/36 25/10/25
f 22/4/22 37/6/37 27/6/27
f 38/1/38 39/4/39 40/4/40
f 32/8/32 41/10/41 36/10/36
f 33/4/33 42/6/42 37/6/37
f 31/22/31 43/24/43 20/23/20
f 36/10/36 44/12/44 29/12/29
f 32/8/32 42/6/42 45/8/45
f 33/4/33 38/1/38 40/4/40
f 46/14/46 38/15/38 35/15/35
f 47/24/47 48/22/48 49/26/49
f 50/14/50 51/15/51 38/15/38
f 44/12/44 52/22/52 30/22/30
f 45/8/45 53/10/53 41/10/41
f 40/4/40 54/6/54 42/6/42
f 30/22/30 47/24/47 43/24/43
f 41/10/41 55/12/55 44/12/44
f 42/6/42 56/8/56 45/8/45
f 57/8/57 58/10/58 59/10/59
f 55/12/55 59/10/59 60/12/60
f 56/8/56 61/6/61 57/8/57
f 51/1/51 62/4/62 39/4/39
f 63/14/63 64/15/64 51/15/51
f 52/22/52 60/12/60 48/22/48
f 53/10/53 57/8/57 59/10/59
f 39/4/39 61/6/61 54/6/54
f 65/15/65 66/14/66 67/15/67
f 61/6/61 68/4/68 69/6/69
f 48/22/48 70/27/70 49/26/49
f 60/12/60 58/10/58 71/12/71
f 61/6/61 72/8/72 57/8/57
f 62/4/62 65/1/65 68/4/68
f 73/14/73 65/15/65 64/15/64
f 48/22/48 71/12/71 74/22/74
f 71/12/71 75/22/75 74/22/74
f 58/10/58 76/8/76 77/10/77
f 68/4/68 78/6/78 69/6/69
f 74/22/74 79/28/79 70/27/70
f 71/12/71 77/10/77 80/12/80
f 72/8/72 78/6/78 76/8/76
f 65/1/65 81/4/81 68/4/68
f 79/28/79 82/22/82 83/23/83
f 76/8/76 84/10/84 77/10/77
f 81/4/81 85/1/85 86/4/86
f 80/12/80 82/22/82 75/22/75
f 78/6/78 87/8/87 76/8/76
f 67/15/67 88/14/88 85/15/85
f 78/6/78 86/4/86 89/6/89
f 77/10/77 90/12/90 80/12/80
f 82/22/82 91/29/91 83/23/83
f 92/30/92 93/30/93 84/30/84
f 92/8/92 94/29/94 95/8/95
f 83/23/83 96/28/96 79/28/79
f 88/14/88 97/31/97 85/15/85
f 98/32/98 99/27/99 100/32/100
f 101/33/101 88/14/88 66/14/66
f 97/31/97 102/6/102 103/6/103
f 104/14/104 101/33/101 66/14/66
f 103/30/103 105/30/105 106/30/106
f 107/34/107 104/14/104 73/14/73
f 49/26/49 98/32/98 107/34/107
f 108/35/108 63/14/63 50/14/50
f 43/24/43 109/34/109 108/35/108
f 109/34/109 73/14/73 63/14/63
f 47/24/47 107/34/107 109/34/109
f 46/14/46 108/35/108 50/14/50
f 20/23/20 108/35/108 110/34/110
f 111/34/111 34/14/34 14/14/14
f 26/25/26 112/34/112 111/34/111
f 112/34/112 46/14/46 34/14/34
f 21/24/21 110/34/110 112/34/112
f 24/22/24 18/36/18 13/13/13
f 18/36/18 111/34/111 16/16/16
f 113/6/113 114/15/114 115/31/115
f 116/12/116 95/8/95 94/29/94
f 84/10/84 116/12/116 90/12/90
f 91/29/91 116/12/116 94/29/94
f 97/31/97 117/15/117 85/15/85
f 86/4/86 117/1/117 118/4/118
f 103/6/103 119/31/119 97/31/97
f 103/30/103 118/30/118 120/30/120
f 121/37/121 122/33/122 123/37/123
f 87/8/87 124/10/124 84/10/84
f 87/8/87 125/6/125 126/8/126
f 103/30/103 127/30/127 86/30/86
f 89/6/89 127/4/127 125/6/125
f 92/30/92 124/30/124 128/30/128
f 125/6/125 129/8/129 126/8/126
f 106/6/106 130/8/130 131/6/131
f 106/30/106 132/30/132 127/30/127
f 124/10/124 129/8/129 133/10/133
f 128/30/128 133/30/133 130/30/130
f 127/4/127 134/6/134 125/6/125
f 135/4/135 136/4/136 137/4/137
f 134/6/134 135/4/135 138/6/138
f 134/6/134 139/8/139 129/8/129
f 140/30/140 137/30/137 141/30/141
f 130/30/130 142/30/142 143/30/143
f 129/8/129 144/10/144 133/10/133
f 143/30/143 145/30/145 146/30/146
f 147/6/147 146/8/146 141/6/141
f 147/30/147 137/30/137 136/30/136
f 144/10/144 142/10/142 133/10/133
f 148/30/148 145/30/145 144/30/144
f 131/6/131 143/8/143 147/6/147
f 131/30/131 136/30/136 132/30/132
f 140/30/140 146/30/146 148/30/148
f 140/30/140 138/6/138 135/30/135
f 139/8/139 148/30/148 144/10/144
f 148/30/148 138/6/138 140/30/140
f 149/8/149 150/31/150 151/29/151
f 123/37/123 151/29/151 150/31/150
f 122/33/122 152/23/152 123/37/123
f 99/27/99 122/33/122 100/32/100
f 102/6/102 153/8/153 105/6/105
f 97/31/97 123/37/123 150/31/150
f 106/6/106 153/8/153 128/8/128
f 101/33/101 100/32/100 122/33/122
f 91/29/91 152/23/152 83/23/83
f 92/30/92 153/30/153 149/30/149
f 91/29/91 149/8/149 151/29/151
f 79/28/79 99/27/99 70/27/70
f 1/1/1 4/4/4 2/2/2
f 4/4/4 6/6/6 5/5/5
f 6/6/6 8/8/8 7/7/7
f 8/8/8 10/10/10 9/9/9
f 10/10/10 12/12/12 11/11/11
f 12/12/12 24/22/24 13/13/13
f 14/14/14 34/14/34 15/15/15
f 16/16/16 111/34/111 14/14/14
f 14/14/14 1/15/1 3/18/3
f 17/38/17 3/39/3 16/20/16
f 3/39/3 2/40/2 16/20/16
f 2/40/2 5/21/5 16/20/16
f 5/21/5 7/41/7 18/19/18
f 7/41/7 9/42/9 18/19/18
f 9/42/9 11/43/11 18/19/18
f 11/43/11 13/44/13 18/19/18
f 19/22/19 31/22/31 20/23/20
f 1/1/1 15/1/15 22/4/22
f 6/6/6 27/6/27 23/8/23
f 12/12/12 28/12/28 19/22/19
f 10/10/10 8/8/8 23/8/23
f 26/25/26 24/22/24 19/22/19
f 4/4/4 22/4/22 27/6/27
f 10/10/10 25/10/25 28/12/28
f 29/12/29 44/12/44 30/22/30
f 25/10/25 36/10/36 29/12/29
f 27/6/27 37/6/37 32/8/32
f 15/1/15 35/1/35 33/4/33
f 34/14/34 46/14/46 35/15/35
f 28/12/28 29/12/29 31/22/31
f 23/8/23 32/8/32 36/10/36
f 22/4/22 33/4/33 37/6/37
f 38/1/38 51/1/51 39/4/39
f 32/8/32 45/8/45 41/10/41
f 33/4/33 40/4/40 42/6/42
f 31/22/31 30/22/30 43/24/43
f 36/10/36 41/10/41 44/12/44
f 32/8/32 37/6/37 42/6/42
f 33/4/33 35/1/35 38/1/38
f 46/14/46 50/14/50 38/15/38
f 47/24/47 52/22/52 48/22/48
f 50/14/50 63/14/63 51/15/51
f 44/12/44 55/12/55 52/22/52
f 45/8/45 56/8/56 53/10/53
f 40/4/40 39/4/39 54/6/54
f 30/22/30 52/22/52 47/24/47
f 41/10/41 53/10/53 55/12/55
f 42/6/42 54/6/54 56/8/56
f 57/8/57 72/8/72 58/10/58
f 55/12/55 53/10/53 59/10/59
f 56/8/56 54/6/54 61/6/61
f 51/1/51 64/1/64 62/4/62
f 63/14/63 73/14/73 64/15/64
f 52/22/52 55/12/55 60/12/60
f 53/10/53 56/8/56 57/8/57
f 39/4/39 62/4/62 61/6/61
f 65/15/65 104/14/104 66/14/66
f 61/6/61 62/4/62 68/4/68
f 48/22/48 74/22/74 70/27/70
f 60/12/60 59/10/59 58/10/58
f 61/6/61 69/6/69 72/8/72
f 62/4/62 64/1/64 65/1/65
f 73/14/73 104/14/104 65/15/65
f 48/22/48 60/12/60 71/12/71
f 71/12/71 80/12/80 75/22/75
f 58/10/58 72/8/72 76/8/76
f 68/4/68 81/4/81 78/6/78
f 74/22/74 75/22/75 79/28/79
f 71/12/71 58/10/58 77/10/77
f 72/8/72 69/6/69 78/6/78
f 65/1/65 67/1/67 81/4/81
f 79/28/79 75/22/75 82/22/82
f 76/8/76 87/8/87 84/10/84
f 81/4/81 67/1/67 85/1/85
f 80/12/80 90/12/90 82/22/82
f 78/6/78 89/6/89 87/8/87
f 67/15/67 66/14/66 88/14/88
f 78/6/78 81/4/81 86/4/86
f 77/10/77 84/10/84 90/12/90
f 82/22/82 90/12/90 91/29/91
f 92/30/92 95/30/95 93/30/93
f 92/8/92 91/29/91 94/29/94
f 83/23/83 152/23/152 96/28/96
f 88/14/88 121/37/121 97/31/97
f 98/32/98 70/27/70 99/27/99
f 101/33/101 121/37/121 88/14/88
f 97/31/97 150/31/150 102/6/102
f 104/14/104 98/32/98 101/33/101
f 103/30/103 102/30/102 105/30/105
f 107/34/107 98/32/98 104/14/104
f 49/26/49 70/27/70 98/32/98
f 108/35/108 109/34/109 63/14/63
f 43/24/43 47/24/47 109/34/109
f 109/34/109 107/34/107 73/14/73
f 47/24/47 49/26/49 107/34/107
f 46/14/46 110/34/110 108/35/108
f 20/23/20 43/24/43 108/35/108
f 111/34/111 112/34/112 34/14/34
f 26/25/26 21/24/21 112/34/112
f 112/34/112 110/34/110 46/14/46
f 21/24/21 20/23/20 110/34/110
f 24/22/24 26/25/26 18/36/18
f 18/36/18 26/25/26 111/34/111
f 113/6/113 154/4/154 114/15/114
f 116/12/116 93/10/93 95/8/95
f 84/10/84 93/10/93 116/12/116
f 91/29/91 90/12/90 116/12/116
f 97/31/97 119/31/119 117/15/117
f 86/4/86 85/1/85 117/1/117
f 103/6/103 120/6/120 119/31/119
f 103/30/103 86/30/86 118/30/118
f 121/37/121 101/33/101 122/33/122
f 87/8/87 126/8/126 124/10/124
f 87/8/87 89/6/89 125/6/125
f 103/30/103 106/30/106 127/30/127
f 89/6/89 86/4/86 127/4/127
f 92/30/92 84/30/84 124/30/124
f 125/6/125 134/6/134 129/8/129
f 106/6/106 128/8/128 130/8/130
f 106/30/106 131/30/131 132/30/132
f 124/10/124 126/8/126 129/8/129
f 128/30/128 124/30/124 133/30/133
f 127/4/127 132/4/132 134/6/134
f 135/4/135 132/4/132 136/4/136
f 134/6/134 132/4/132 135/4/135
f 134/6/134 138/6/138 139/8/139
f 140/30/140 135/30/135 137/30/137
f 130/30/130 133/30/133 142/30/142
f 129/8/129 139/8/139 144/10/144
f 143/30/143 142/30/142 145/30/145
f 147/6/147 143/8/143 146/8/146
f 147/30/147 141/30/141 137/30/137
f 144/10/144 145/10/145 142/10/142
f 148/30/148 146/30/146 145/30/145
f 131/6/131 130/8/130 143/8/143
f 131/30/131 147/30/147 136/30/136
f 140/30/140 141/30/141 146/30/146
f 148/30/148 139/8/139 138/6/138
f 149/8/149 102/6/102 150/31/150
f 123/37/123 152/23/152 151/29/151
f 122/33/122 96/28/96 152/23/152
f 99/27/99 96/28/96 122/33/122
f 102/6/102 149/8/149 153/8/153
f 97/31/97 121/37/121 123/37/123
f 106/6/106 105/6/105 153/8/153
f 101/33/101 98/32/98 100/32/100
f 91/29/91 151/29/151 152/23/152
f 92/30/92 128/30/128 153/30/153
f 91/29/91 92/8/92 149/8/149
f 79/28/79 96/28/96 99/27/99
# Vertices: 154, normals: 154, texture coordinates: 44, faces: 296

